<?xml version="1.0" standalone="no"?>
<!DOCTYPE svg PUBLIC "-//W3C//DTD SVG 20010904//EN"
 "http://www.w3.org/TR/2001/REC-SVG-20010904/DTD/svg10.dtd">
<svg version="1.0" xmlns="http://www.w3.org/2000/svg"
 width="1500.000000pt" height="1500.000000pt" viewBox="0 0 1500.000000 1500.000000"
 preserveAspectRatio="xMidYMid meet">
<metadata>
Created by potrace 1.10, written by Peter Selinger 2001-2011
</metadata>
<g transform="translate(0.000000,1500.000000) scale(0.100000,-0.100000)"
fill="#000000" stroke="none">
<path d="M3408 10698 c-18 -15 -27 -188 -29 -572 -2 -217 1 -230 41 -223 11 2
17 23 22 84 4 45 11 91 17 102 6 11 11 33 11 49 0 42 57 168 103 230 53 70
118 123 198 161 124 59 158 61 859 61 349 0 641 -4 648 -9 10 -6 -5 -40 -64
-142 -42 -74 -85 -147 -95 -164 -11 -16 -22 -37 -26 -45 -3 -8 -30 -56 -59
-106 -29 -50 -58 -102 -64 -115 -6 -13 -19 -37 -30 -54 -11 -16 -24 -39 -30
-50 -6 -11 -19 -33 -30 -50 -11 -16 -24 -40 -29 -52 -6 -12 -21 -39 -34 -60
-13 -21 -41 -69 -61 -108 -43 -82 -41 -78 -100 -176 -25 -42 -46 -79 -46 -82
0 -4 -12 -23 -26 -44 -14 -21 -30 -47 -35 -58 -5 -11 -27 -51 -48 -90 -65
-114 -89 -105 272 -105 l312 0 14 23 c8 12 25 40 36 62 12 22 32 58 45 80 13
22 41 73 62 113 22 41 56 102 77 135 20 34 41 69 45 77 4 8 12 24 19 35 7 11
37 65 67 120 30 55 60 109 67 120 6 11 19 34 27 50 8 17 29 53 45 80 17 28 35
59 41 70 6 11 19 34 30 50 10 17 29 50 42 75 12 25 35 67 50 93 16 27 45 78
65 115 52 97 62 114 83 147 10 17 33 58 52 93 32 62 32 64 14 78 -17 12 -208
14 -1281 14 -994 0 -1265 -3 -1277 -12z"/>
<path d="M7077 10663 c-13 -12 -7 -70 9 -102 27 -54 26 -550 -2 -706 -7 -44
-14 -103 -14 -130 0 -28 -7 -77 -15 -108 -8 -32 -15 -77 -15 -101 0 -24 -7
-65 -15 -92 -8 -27 -15 -70 -15 -95 0 -25 -7 -69 -16 -98 -8 -28 -14 -73 -12
-99 3 -47 3 -47 41 -50 47 -4 67 11 67 51 0 16 5 59 10 96 6 36 18 109 26 161
23 146 33 210 40 267 6 57 21 76 54 71 16 -2 26 -17 40 -58 11 -30 20 -66 20
-80 0 -14 7 -36 15 -50 8 -14 15 -38 15 -55 0 -16 7 -41 15 -55 8 -14 14 -38
15 -53 0 -16 5 -37 10 -48 6 -10 15 -39 20 -64 6 -25 15 -66 20 -92 6 -26 17
-57 25 -70 l15 -23 311 0 c343 0 336 -2 305 64 -9 19 -16 46 -16 61 0 14 -5
36 -12 48 -6 12 -15 42 -19 67 -4 25 -12 63 -17 85 -6 22 -15 67 -22 100 -6
33 -17 89 -25 125 -7 36 -18 97 -24 135 -18 122 -21 138 -36 235 -27 169 -38
402 -25 532 6 65 8 122 5 128 -7 11 -767 15 -778 3z"/>
<path d="M9030 10660 c-12 -7 -12 -16 0 -62 16 -63 16 -432 0 -488 -6 -19 -10
-55 -10 -80 0 -25 -7 -72 -15 -103 -8 -32 -15 -72 -15 -90 0 -18 -5 -48 -11
-67 -6 -19 -14 -60 -18 -90 -8 -53 -17 -93 -41 -190 -6 -25 -15 -70 -20 -102
-4 -31 -11 -62 -16 -69 -4 -7 -11 -31 -15 -54 -4 -22 -14 -65 -22 -95 -8 -30
-16 -62 -18 -70 -6 -21 83 -27 100 -6 7 8 26 70 42 138 30 125 54 219 69 273
5 17 11 49 15 72 4 24 11 45 16 49 5 3 9 20 9 39 0 39 22 65 55 65 26 0 35
-17 35 -65 0 -18 7 -52 15 -75 8 -23 15 -61 15 -84 0 -22 7 -63 15 -90 8 -27
15 -64 15 -82 0 -18 7 -59 15 -91 8 -31 15 -76 15 -99 0 -23 6 -47 14 -53 9
-8 103 -11 322 -9 302 3 309 3 306 23 -11 86 -23 168 -32 210 -6 27 -8 55 -6
61 3 7 -2 36 -10 66 -7 29 -14 70 -14 92 0 21 -6 77 -14 125 -27 160 -40 345
-40 586 0 197 3 254 18 318 14 61 15 81 6 93 -11 12 -72 14 -389 14 -211 0
-382 -4 -391 -10z"/>
<path d="M8854 8945 c-10 -8 -30 -15 -44 -15 -27 0 -120 -73 -120 -95 0 -7 -7
-18 -15 -25 -11 -9 -15 -34 -15 -95 0 -61 4 -86 15 -95 8 -7 15 -18 15 -24 0
-17 46 -63 90 -91 33 -21 52 -25 110 -25 83 0 126 22 182 92 49 60 61 121 43
221 -10 53 -93 137 -135 137 -43 0 -37 -15 14 -40 77 -37 114 -141 86 -241
-11 -40 -68 -109 -90 -109 -8 0 -24 -7 -34 -15 -28 -21 -99 -18 -145 6 -151
78 -159 284 -15 360 24 13 44 27 44 31 0 5 20 8 45 8 48 0 60 14 23 24 -31 8
-32 8 -54 -9z"/>
<path d="M9428 8953 c-33 -8 -18 -23 22 -23 22 0 40 5 40 10 0 6 -4 10 -9 10
-5 0 -15 2 -23 4 -7 2 -21 2 -30 -1z"/>
<path d="M4325 8931 c-11 -5 -41 -6 -66 -4 -27 3 -50 0 -54 -6 -4 -7 15 -11
58 -11 48 0 66 -4 70 -15 4 -8 -14 -55 -38 -104 -25 -49 -45 -92 -45 -95 0 -7
-54 -128 -76 -170 -8 -17 -11 -33 -6 -38 5 -5 56 -7 113 -6 84 2 104 6 104 18
0 12 -17 16 -77 18 -74 3 -78 4 -84 28 -4 16 -1 31 10 43 9 10 16 25 16 33 0
9 7 21 15 28 8 7 15 20 15 30 0 10 7 23 15 30 8 7 15 18 15 25 0 7 19 50 41
95 40 79 41 84 24 97 -21 15 -22 15 -50 4z"/>
<path d="M6063 8933 c-10 -4 -13 -58 -13 -229 l0 -224 65 0 c113 0 175 45 183
133 4 51 3 54 -32 85 -41 35 -44 47 -18 75 11 12 17 35 17 63 0 37 -5 48 -30
69 -23 20 -39 25 -70 22 -22 -2 -51 -1 -65 3 -14 4 -31 5 -37 3z m142 -47 c38
-25 35 -85 -5 -114 -33 -25 -119 -32 -121 -9 -3 48 5 124 14 136 14 17 78 9
112 -13z m21 -195 c35 -21 45 -57 32 -108 -7 -26 -17 -34 -55 -47 -56 -19 -95
-20 -111 -4 -13 13 -17 159 -5 171 14 15 109 7 139 -12z"/>
<path d="M5427 8923 c-4 -3 -7 -75 -7 -159 0 -84 -4 -155 -9 -158 -9 -6 -108
100 -148 159 -13 19 -29 38 -36 42 -6 4 -29 29 -50 56 -66 81 -68 76 -65 -165
3 -182 5 -213 18 -213 13 0 15 26 18 160 3 188 5 200 34 165 37 -46 176 -206
229 -264 21 -23 41 -36 47 -32 15 9 17 353 2 390 -9 26 -21 32 -33 19z"/>
<path d="M7647 8924 c-4 -4 -7 -103 -7 -221 0 -183 2 -213 15 -213 12 0 15 18
15 98 0 53 4 103 8 110 6 9 37 12 118 10 l109 -3 5 -104 c3 -67 9 -106 17
-108 13 -5 21 186 13 337 -6 112 -24 124 -27 17 -1 -39 -2 -78 -2 -85 -1 -10
-28 -12 -118 -10 l-118 3 -3 80 c-3 77 -10 103 -25 89z"/>
<path d="M9320 8913 c-14 -9 -40 -36 -59 -61 -34 -45 -35 -49 -35 -139 l0 -93
41 -47 c59 -70 104 -93 186 -93 60 0 74 4 115 31 26 17 62 51 80 75 30 41 32
47 32 132 0 67 -4 93 -15 102 -8 7 -15 18 -15 24 0 13 -44 56 -58 56 -5 0 -15
7 -22 15 -14 17 -60 21 -60 5 0 -6 8 -13 18 -17 96 -34 148 -167 106 -271 -38
-96 -174 -151 -257 -104 -85 47 -113 82 -122 157 -11 89 38 188 108 214 15 6
27 15 27 21 0 15 -41 11 -70 -7z"/>
<path d="M9802 8706 l3 -221 78 -3 c80 -3 167 18 220 53 81 53 92 255 18 330
-19 19 -42 35 -51 35 -10 0 -23 7 -30 15 -9 11 -37 14 -126 13 l-114 -1 2
-221z m244 178 c6 -8 16 -14 21 -14 19 0 50 -46 68 -102 18 -55 18 -60 2 -111
-19 -61 -57 -105 -96 -113 -14 -3 -42 -9 -62 -14 -50 -14 -113 -12 -127 2 -17
17 -17 349 1 367 17 17 177 5 193 -15z"/>
<path d="M4654 8912 c-5 -4 -18 -27 -29 -52 -10 -25 -25 -52 -32 -61 -7 -8
-13 -19 -13 -24 0 -5 -9 -27 -19 -49 -11 -23 -31 -68 -46 -101 -14 -33 -33
-74 -42 -92 -8 -17 -12 -36 -8 -42 9 -16 25 -4 25 18 0 10 7 24 15 31 8 7 15
20 15 30 0 9 16 33 35 53 20 21 35 46 35 60 0 13 9 42 20 65 11 23 25 53 30
67 5 14 15 25 22 25 21 0 41 -17 34 -29 -4 -5 3 -20 14 -31 16 -16 21 -34 22
-72 0 -43 4 -55 26 -73 15 -13 36 -46 47 -75 21 -55 47 -86 64 -76 6 4 5 16
-4 34 -8 15 -17 34 -20 42 -3 8 -16 35 -30 59 -14 24 -25 50 -25 56 0 7 -7 18
-15 25 -8 7 -15 20 -15 30 0 10 -7 23 -15 30 -8 7 -15 21 -15 31 0 9 -6 24
-14 31 -7 8 -17 28 -20 45 -8 35 -27 55 -42 45z"/>
<path d="M7327 8902 c-10 -10 -17 -26 -17 -34 0 -9 -7 -21 -15 -28 -8 -7 -15
-20 -15 -30 0 -10 -7 -23 -15 -30 -8 -7 -15 -20 -15 -30 0 -10 -7 -23 -15 -30
-8 -7 -15 -19 -15 -27 0 -8 -6 -27 -13 -41 -8 -15 -21 -42 -30 -60 -9 -19 -17
-41 -17 -50 0 -8 -7 -24 -17 -34 -21 -23 0 -24 27 -1 11 10 20 27 20 39 0 12
7 27 15 34 8 7 15 20 15 30 0 10 13 23 29 30 26 10 29 17 29 53 -1 40 33 123
56 139 19 14 36 8 36 -11 0 -10 7 -24 15 -31 8 -7 15 -23 15 -36 0 -13 7 -27
16 -32 13 -7 13 -13 2 -36 -11 -25 -10 -30 6 -42 11 -7 22 -15 25 -16 3 -2 22
-34 41 -72 19 -38 40 -69 45 -68 17 2 17 29 0 45 -8 9 -15 22 -15 30 0 8 -7
20 -15 27 -8 7 -15 20 -15 29 0 10 -7 26 -15 37 -8 10 -15 27 -15 37 0 10 -7
20 -15 23 -8 4 -15 18 -15 34 0 16 -7 30 -15 34 -8 3 -15 14 -15 24 0 25 -38
112 -49 112 -4 0 -15 -8 -24 -18z"/>
<path d="M8126 8908 c-14 -42 -29 -123 -36 -193 -4 -44 -13 -94 -19 -111 -14
-36 -11 -120 3 -117 16 4 45 134 45 205 1 83 7 98 37 98 17 0 24 -6 24 -19 0
-11 6 -26 13 -33 8 -7 17 -26 21 -41 3 -15 11 -27 16 -27 16 0 11 47 -5 54 -8
3 -15 17 -15 31 0 14 -7 28 -15 31 -8 4 -15 17 -15 29 0 13 -4 26 -9 30 -5 3
-12 19 -16 35 -7 33 -23 48 -29 28z"/>
<path d="M5733 8903 c-7 -2 -13 -11 -13 -20 0 -8 -6 -27 -14 -41 -8 -15 -17
-34 -20 -42 -3 -8 -11 -24 -18 -35 -22 -39 -28 -50 -38 -72 -24 -56 -72 -160
-80 -175 -13 -23 -13 -28 1 -28 13 0 48 40 49 55 0 24 42 90 60 97 14 5 20 17
20 41 0 18 9 50 20 72 11 22 20 45 20 52 0 13 30 33 49 33 6 0 11 -11 11 -24
0 -13 7 -29 15 -36 8 -7 15 -22 15 -34 0 -12 5 -27 12 -34 8 -8 8 -15 -3 -28
-11 -14 -9 -19 17 -43 17 -14 42 -51 57 -82 29 -61 51 -87 62 -70 5 10 -6 38
-36 91 -5 8 -12 22 -15 30 -21 50 -47 101 -55 106 -5 3 -9 16 -9 30 0 14 -7
27 -15 30 -8 4 -15 15 -15 27 0 29 -39 107 -53 106 -7 0 -18 -3 -24 -6z"/>
<path d="M6627 8893 c-2 -4 -8 -23 -12 -41 -8 -37 7 -62 35 -62 12 0 27 -18
44 -52 15 -29 31 -62 38 -73 21 -37 28 -50 48 -92 11 -23 20 -47 20 -52 0 -20
28 -11 45 15 20 31 13 55 -15 51 -19 -2 -44 30 -64 83 -3 8 -11 24 -18 35 -23
40 -28 50 -34 65 -3 8 -10 22 -15 30 -5 8 -13 25 -19 38 -13 30 -47 66 -53 55z"/>
<path d="M6940 8793 c-28 -59 -57 -121 -65 -136 -8 -16 -15 -35 -15 -44 0 -24
25 -9 28 18 2 13 10 28 18 32 8 4 14 16 14 26 0 10 7 24 15 31 8 7 15 20 15
29 0 20 37 54 50 46 6 -4 10 -33 10 -65 0 -32 5 -71 11 -87 7 -15 14 -57 18
-93 4 -48 10 -65 21 -65 12 0 14 12 12 65 -2 36 -10 90 -18 121 -8 31 -14 79
-15 105 -1 55 -19 116 -37 122 -8 2 -33 -40 -62 -105z"/>
<path d="M8471 8864 c-12 -19 -21 -41 -21 -48 0 -8 -7 -19 -15 -26 -8 -7 -15
-21 -15 -31 0 -10 -4 -20 -9 -24 -6 -3 -22 -31 -37 -63 -15 -31 -34 -67 -42
-80 l-15 -23 -23 22 c-13 12 -24 31 -26 42 -4 26 -28 35 -27 10 1 -23 61 -138
72 -138 4 0 17 18 29 40 11 22 24 47 29 55 29 53 79 158 79 167 0 6 14 14 30
18 18 4 31 13 31 23 1 9 3 28 4 42 6 58 -14 65 -44 14z"/>
<path d="M8505 8750 c-6 -9 -5 -20 10 -114 9 -52 25 -29 25 34 0 73 -16 110
-35 80z"/>
<path d="M6597 8708 c-10 -35 -8 -126 2 -132 13 -9 21 20 21 77 0 61 -14 92
-23 55z"/>
<path d="M8537 8553 c-13 -12 -7 -54 8 -60 23 -8 28 1 20 36 -6 30 -15 38 -28
24z"/>
<path d="M6570 8505 c0 -8 5 -15 10 -15 6 0 10 7 10 15 0 8 -4 15 -10 15 -5 0
-10 -7 -10 -15z"/>
<path d="M3963 8233 c-7 -2 -13 -9 -13 -15 0 -6 -26 -54 -58 -107 -32 -53 -61
-103 -65 -111 -4 -8 -16 -28 -27 -45 -10 -16 -30 -50 -42 -75 -13 -25 -41 -76
-63 -114 -22 -37 -56 -98 -75 -135 -19 -36 -48 -85 -63 -109 -15 -23 -37 -59
-48 -80 -11 -20 -30 -53 -41 -72 -11 -19 -39 -69 -61 -110 -51 -95 -64 -118
-87 -155 -64 -102 -81 -140 -71 -162 l11 -23 1410 0 c1121 0 1410 3 1410 13 2
62 -4 693 -9 922 l-6 290 -25 0 c-23 0 -26 -5 -37 -75 -6 -41 -12 -96 -12
-121 -1 -26 -8 -66 -16 -89 -8 -23 -15 -57 -15 -74 -1 -17 -7 -42 -15 -56 -8
-14 -14 -35 -15 -47 0 -12 -6 -37 -14 -55 -8 -18 -30 -71 -50 -118 -19 -47
-47 -107 -61 -135 -34 -64 -117 -162 -174 -206 -25 -19 -49 -39 -55 -45 -6 -5
-33 -21 -61 -33 -27 -13 -58 -27 -68 -32 -9 -5 -45 -12 -80 -15 -72 -7 -1386
-12 -1404 -6 -26 9 -11 44 88 202 5 8 12 22 16 30 4 8 19 36 35 62 15 26 44
78 63 115 20 38 45 82 56 98 10 17 22 37 26 45 4 8 27 49 51 90 25 41 63 109
84 150 22 41 72 131 111 199 106 182 115 199 109 205 -7 7 -622 6 -639 -1z"/>
<path d="M6837 8233 c-4 -3 -7 -21 -7 -38 0 -18 -7 -54 -15 -81 -8 -27 -15
-64 -15 -82 0 -18 -7 -49 -15 -69 -8 -19 -15 -51 -15 -70 0 -18 -7 -50 -15
-70 -8 -19 -15 -49 -15 -65 0 -16 -5 -38 -11 -49 -6 -11 -14 -41 -19 -67 -19
-106 -112 -426 -138 -478 -10 -20 -36 -79 -46 -104 -3 -8 -15 -28 -26 -45 -29
-44 -41 -76 -38 -99 3 -20 9 -21 206 -24 180 -2 203 -1 209 14 3 9 -4 64 -16
123 -24 120 -28 328 -10 486 5 50 14 140 19 200 5 61 13 128 19 149 5 22 7 44
4 49 -3 5 2 50 10 100 28 165 35 212 30 220 -5 9 -87 9 -96 0z"/>
<path d="M7643 8208 c3 -18 10 -51 15 -73 6 -22 15 -67 22 -100 6 -33 17 -89
25 -125 7 -36 19 -103 25 -150 6 -47 16 -103 21 -125 5 -22 11 -68 14 -102 2
-34 9 -81 15 -105 10 -38 9 -331 -2 -488 l-3 -45 399 -3 398 -2 -7 77 c-16
176 -3 492 24 583 6 19 11 53 11 76 0 23 7 61 15 84 8 23 15 60 15 81 0 21 5
50 11 66 6 15 15 55 20 88 5 33 16 92 25 130 9 39 17 90 18 115 l1 45 -50 0
-49 0 -17 -55 c-9 -30 -22 -73 -27 -95 -6 -22 -16 -60 -23 -85 -8 -25 -14 -54
-16 -65 -4 -34 -30 -138 -42 -168 -22 -57 -63 -44 -82 27 -22 85 -41 152 -51
181 -6 17 -14 48 -18 70 -14 66 -31 128 -46 163 l-14 32 -316 0 -316 0 5 -32z"/>
<path d="M9410 8203 c0 -21 7 -60 15 -87 8 -27 15 -70 15 -95 0 -25 7 -71 15
-101 8 -30 15 -77 15 -105 0 -27 7 -86 16 -130 23 -121 24 -615 1 -669 -10
-21 -17 -58 -17 -82 l0 -44 480 0 c377 0 480 3 481 13 3 30 -4 54 -25 82 -36
48 -70 125 -136 315 -6 19 -15 49 -20 65 -8 29 -16 55 -41 128 -6 17 -14 50
-18 72 -4 23 -11 46 -15 53 -4 7 -11 33 -16 60 -5 26 -17 81 -26 122 -8 41
-19 98 -23 125 -5 28 -13 73 -19 100 -6 28 -16 82 -23 120 -6 39 -14 76 -17
83 -3 9 -77 12 -323 12 l-319 0 0 -37z"/>
</g>
</svg>
